PathFileType	4	(X/Y/Z)	walk-thru1-4-TP.trc
DataRate	CameraRate	NumFrames	NumMarkers	Units	OrigDataRate	OrigDataStartFrame	OrigNumFrames
120.00	120.00	       5	60	mm	120.00	385	       512
Frame#	Time	Top.Head			Front.Head			Rear.Head			Jaw			C7			R.Clavicle			L.Clavicle			R.Shoulder			L.Shoulder			R.Scapula			L.Scapula			R.Scap.Inf			R.Biceps.Lateral			R.Elbow			R.Elbow.Medial			R.Forearm			R.Ulna			R.Radius			R.Wrist			R.Thumb.M1			R.Thumb.M2			R.Thumb.M3			R.Finger3.M1			R.Finger3.M2			R.Finger3.M3			L.Biceps.Lateral			L.Elbow			L.Elbow.Medial			L.Forearm			L.Ulna			L.Radius			L.Wrist			L.Thumb.M1			L.Thumb.M2			L.Thumb.M3			L.Finger3.M1			L.Finger3.M2			L.Finger3.M3			V.Sacral			R.ASIS			L.ASIS			R.Thigh			R.Thigh.Front			R.Knee			R.Knee.Medial			R.Shank			R.Ankle			R.Ankle.Medial			R.Heel			R.Toe			R.MedFoot			L.Thigh			L.Knee			L.Knee.Medial			L.Shank			L.Ankle			L.Ankle.Medial			L.Heel			L.Toe			L.MedFoot			V_mid_ASIS			V_R_Knee_JC			V_L_Knee_JC			V_R_Elbow_JC			V_L_Elbow_JC			V_R_Ankle_JC			V_L_Ankle_JC			V_R_Wrist_JC			V_L_Wrist_JC			V_R_ScaTrpz_1stMC_JC			V_R_1stMC_1stPP_JC			V_R_1stPP_1stDP_JC			V_R_LunCap_3rdMC_JC			V_R_3rdMC_3rdPP_JC			V_R_3rdPP_3rdMP_JC			V_R_3rdMP_3rdDP_JC			V_L_ScaTrpz_1stMC_JC			V_L_1stMC_1stPP_JC			V_L_1stPP_1stDP_JC			V_L_LunCap_3rdMC_JC			V_L_3rdMC_3rdPP_JC			V_L_3rdPP_3rdMP_JC			V_L_3rdMP_3rdPP_JC			V_ROOT_JC			V_R_Hip_JC			V_L_Hip_JC			V_R_GlenHum_JC			V_L_GlenHum_JC			V_ForeHead_Ctr			V_Vertex			V_Sagit_Lambdoid_Suture			V_R_FrontoTemp			V_L_FrontoTemporal			V_R_ParietalOccip			V_L_ParietalOcciptal			V_R_Temporal			V_L_Temporal			V_mid_FrontRearHead			V_mid_RLGlenHumCtrs			V_C7_vert			V_C1_vert			V_Mid_Hip			
		X1	Y1	Z1	X2	Y2	Z2	X3	Y3	Z3	X4	Y4	Z4	X5	Y5	Z5	X6	Y6	Z6	X7	Y7	Z7	X8	Y8	Z8	X9	Y9	Z9	X10	Y10	Z10	X11	Y11	Z11	X12	Y12	Z12	X13	Y13	Z13	X14	Y14	Z14	X15	Y15	Z15	X16	Y16	Z16	X17	Y17	Z17	X18	Y18	Z18	X19	Y19	Z19	X20	Y20	Z20	X21	Y21	Z21	X22	Y22	Z22	X23	Y23	Z23	X24	Y24	Z24	X25	Y25	Z25	X26	Y26	Z26	X27	Y27	Z27	X28	Y28	Z28	X29	Y29	Z29	X30	Y30	Z30	X31	Y31	Z31	X32	Y32	Z32	X33	Y33	Z33	X34	Y34	Z34	X35	Y35	Z35	X36	Y36	Z36	X37	Y37	Z37	X38	Y38	Z38	X39	Y39	Z39	X40	Y40	Z40	X41	Y41	Z41	X42	Y42	Z42	X43	Y43	Z43	X44	Y44	Z44	X45	Y45	Z45	X46	Y46	Z46	X47	Y47	Z47	X48	Y48	Z48	X49	Y49	Z49	X50	Y50	Z50	X51	Y51	Z51	X52	Y52	Z52	X53	Y53	Z53	X54	Y54	Z54	X55	Y55	Z55	X56	Y56	Z56	X57	Y57	Z57	X58	Y58	Z58	X59	Y59	Z59	X60	Y60	Z60	

385	3.200	929.21600	-40.86186	1804.60889	1028.50525	-30.82278	1690.65906	801.16650	-42.62400	1707.83228	982.46381	-34.30138	1524.44556	788.61597	-41.96129	1572.09912	889.07935	-152.83142	1477.09045	891.84259	75.18188	1480.13184	852.89740	-241.97020	1472.44458	820.94977	168.67244	1489.66650	739.60205	-129.68457	1487.10193	734.64386	40.85102	1491.52795	692.81750	-140.87901	1399.89771	813.23621	-304.43420	1292.44580	782.94781	-325.15320	1139.06750	759.00922	-238.78673	1120.44946	870.46399	-270.32129	1027.77051	845.27972	-315.96417	926.46686	902.82123	-251.63615	898.46906	904.49774	-290.66971	852.30444	915.61853	-244.44421	865.79974	950.50897	-212.14391	822.53534	989.74689	-209.06778	798.08398	950.26154	-292.66260	784.44000	965.29614	-253.40985	731.83868	950.19775	-209.79042	707.21484	785.82294	232.51808	1344.74207	756.35999	278.89594	1172.60413	710.85529	212.99666	1157.72021	815.29443	254.91060	1062.68408	758.02252	277.04761	977.82214	823.00092	227.37746	921.78607	810.60803	261.58160	865.62506	827.38300	215.24023	854.67462	816.67578	179.83371	805.95483	816.93127	185.34053	743.71033	820.09497	278.20532	788.95966	803.66681	259.26282	733.78839	777.85626	239.98381	693.02277	695.23566	-31.15103	1092.31726	789.71356	-218.01280	1036.86401	796.15900	156.83369	1034.01819	874.32361	-166.21620	632.82391	956.66443	-78.49802	569.94843	907.06317	-136.39148	507.74973	900.77124	-23.11007	511.93738	910.27838	-88.95709	325.77350	800.32202	-117.20778	74.72788	836.40460	-20.31437	96.86053	743.50848	-56.36105	48.37997	985.61371	-82.64771	51.42518	913.54425	-40.35239	72.82819	904.35553	166.06848	660.29474	936.69495	158.36664	516.94427	952.24835	36.76650	510.33606	839.43286	103.84449	343.59314	619.91724	119.66507	202.18784	674.50409	29.34669	210.31184	576.22974	55.33258	224.99510	735.53967	77.41180	69.90169	713.42883	48.61801	117.54335																																																																																																																															
386	3.208	935.38361	-41.93457	1805.04724	1033.37549	-30.52264	1690.25916	806.62299	-42.30621	1708.33630	987.84686	-34.08062	1525.17163	792.30682	-43.05654	1570.87463	894.96979	-153.53117	1477.17004	896.54712	74.60555	1480.84851	858.24493	-242.29161	1472.25537	827.47998	168.76852	1490.34045	744.87335	-130.80748	1487.98352	739.99518	40.38573	1492.24756	697.48273	-143.50230	1400.03760	819.07715	-305.43079	1293.07886	789.22406	-326.41156	1139.71436	765.63153	-236.98956	1121.64063	876.59943	-270.78680	1028.42175	852.20825	-316.89474	926.71277	910.61041	-251.86938	900.02618	911.68054	-292.04089	852.82971	923.09814	-244.97899	866.64386	958.93866	-213.43210	823.60657	997.90179	-209.70590	798.57831	957.51038	-293.87189	786.10645	973.26111	-253.83324	733.46649	957.86090	-211.46860	707.81506	790.84125	232.69604	1345.85388	759.73126	278.21054	1172.79370	714.87335	211.76945	1158.30444	819.26416	254.09604	1063.03857	762.34741	276.99527	977.89929	826.86371	227.77069	922.38586	815.19122	262.79803	865.73187	829.56250	215.33536	854.63574	819.04266	179.12918	805.16687	824.38690	186.84787	744.43604	824.15900	277.83475	789.87537	807.29688	258.32648	733.61615	781.56104	239.55524	693.51422	700.20404	-31.65104	1092.91528	796.14960	-218.99283	1037.53406	800.12610	156.37047	1035.07520	877.94049	-165.93422	632.95703	958.28101	-77.73315	569.86078	909.03748	-136.22525	506.81424	901.44098	-23.85677	511.22955	911.04272	-89.99757	325.53622	800.26666	-117.24566	74.80843	835.42059	-20.98657	96.45517	743.53668	-55.97106	48.06296	985.74408	-82.80237	51.29913	913.98926	-40.74416	72.95077	912.92383	165.72293	661.96143	947.77386	156.59554	518.55823	961.83948	35.32616	512.65369	852.36847	102.50178	343.62720	635.26965	120.08208	199.04936	689.69763	29.15837	207.56151	590.50769	55.08369	220.12961	754.52148	78.47976	70.89769	730.75635	48.94008	116.83969																																																																																																																															
387	3.217	940.96265	-41.14482	1804.67822	1039.16174	-30.38881	1691.22192	811.42841	-43.86945	1709.21509	992.68909	-34.10139	1525.41675	798.84668	-41.95874	1573.25769	900.23126	-153.39487	1477.95264	900.60614	73.93414	1481.42908	862.45605	-243.90411	1472.79358	831.22675	167.05370	1491.30408	750.78253	-132.32906	1488.42517	744.56323	37.34008	1491.86951	703.09808	-141.82545	1400.65869	824.58783	-305.77280	1293.68823	795.90155	-326.53809	1140.29016	771.98474	-240.26723	1121.46729	884.07550	-273.10010	1030.07507	859.37097	-317.74814	927.07385	918.08569	-252.11478	900.39410	918.71246	-292.33887	853.79926	930.03821	-245.93921	868.18048	965.66565	-213.78995	823.99573	1005.01080	-209.64972	799.23053	965.59479	-294.96451	787.18134	980.26147	-254.17621	734.11279	965.10828	-211.43272	709.17438	794.67505	232.40013	1346.29858	764.76276	277.34454	1173.41736	719.52826	212.12968	1158.74683	823.92236	253.98076	1063.37451	765.99213	277.53592	978.11432	830.48358	225.45093	921.99042	819.66711	260.21103	865.51941	835.11664	213.59514	856.25598	824.11700	178.25087	804.93646	825.54730	184.80051	745.00421	828.74493	278.15665	790.08997	811.61365	258.72025	734.23706	784.95105	238.85429	693.85461	705.74719	-31.34038	1092.96387	801.36743	-219.95323	1037.89490	805.49811	156.95985	1035.28284	879.77832	-167.19795	633.04425	962.23840	-77.77807	569.97449	911.37787	-136.38348	506.41962	904.48920	-24.32310	511.55862	912.30890	-90.15326	325.37234	800.52454	-116.89573	74.57460	835.64551	-20.88210	96.58093	743.28693	-56.38951	48.84562	985.60760	-82.68544	51.32954	913.97089	-40.88684	73.01021	922.46533	163.62782	663.94415	957.87976	154.35985	520.01898	969.49420	33.61427	514.64880	865.47034	101.70747	344.01566	650.36896	120.34427	195.04849	704.13141	28.98689	205.58649	604.90289	55.84098	214.93611	772.17072	76.83463	69.92775	746.99847	47.15440	115.64803																																																																																																																															
388	3.225	946.04486	-40.79032	1806.24707	1044.54773	-31.92098	1691.40356	817.75488	-43.07571	1708.73901	997.89087	-35.53898	1525.35901	803.22083	-43.02213	1572.75024	905.43463	-154.16995	1478.72510	905.67151	74.08731	1481.75439	867.76758	-243.92223	1473.19836	834.86023	166.63217	1490.52747	756.38849	-132.35159	1488.17200	749.73383	38.21201	1492.63416	708.43347	-143.82732	1400.63184	829.89410	-306.11099	1294.61133	801.86902	-326.25024	1140.87183	778.42657	-239.08719	1123.20447	890.30414	-271.81601	1030.01477	866.28296	-317.38129	928.31152	925.53284	-252.94316	901.85956	925.92926	-293.28287	854.53644	936.92834	-247.14403	868.46558	973.84778	-215.54387	826.74725	1012.17963	-211.33635	800.18701	972.77856	-295.04865	787.81531	988.48010	-255.38995	734.79761	973.66803	-212.31897	710.19214	798.91132	231.13139	1346.75940	768.52020	276.31143	1173.73499	724.55811	210.49443	1159.15479	827.89349	252.78085	1064.54370	770.20459	275.88773	979.35132	834.77490	224.94865	922.58844	823.56262	259.99890	866.28424	838.83765	215.13918	856.12146	828.94165	178.89091	807.79889	830.81641	184.74530	745.07916	832.27454	277.06531	790.34003	815.55231	258.10400	734.64819	789.07758	238.92514	694.22913	710.94122	-32.25049	1093.21460	806.93427	-219.72481	1037.98828	811.59369	155.51607	1035.67065	882.20605	-167.27437	632.97546	962.73169	-78.98258	568.03290	912.55640	-136.07538	506.47229	903.39435	-24.57832	511.17599	913.44366	-90.81548	325.61630	800.52490	-116.97166	75.07160	836.58417	-20.27121	96.83018	743.10895	-56.33024	49.90162	985.65613	-82.47711	51.40958	913.97089	-40.88684	73.01021	932.00421	162.84714	665.19867	967.61731	152.97237	522.21783	978.84863	29.93044	515.67291	877.94330	100.22260	343.91379	665.99591	120.04510	190.98637	719.44354	28.21948	202.02100	619.60699	56.07701	209.71793	792.10150	77.27888	69.27979	765.71472	47.62406	114.56282																																																																																																																															
389	3.233	950.46246	-41.69224	1806.72107	1048.88037	-30.75015	1691.43298	822.17218	-43.92265	1709.13733	1003.40887	-34.95786	1526.58105	808.77557	-41.48727	1574.08081	910.77814	-154.20209	1479.43286	911.81824	73.34098	1482.24609	873.36047	-244.76039	1473.92017	840.91132	167.13338	1491.28552	760.63440	-132.61118	1487.73718	754.61169	37.91414	1493.27051	713.09259	-144.35480	1400.78503	835.93134	-306.65884	1295.34424	807.68079	-326.08832	1141.05090	783.33752	-240.35942	1123.04907	896.75037	-273.41650	1031.08911	873.13824	-317.88806	928.86609	931.93701	-254.27005	902.87140	932.59412	-293.18738	854.97357	945.17407	-247.75081	869.79041	980.07629	-214.88368	826.63196	1019.91357	-211.65842	801.46252	980.17108	-296.44284	789.02515	995.82019	-256.10764	736.11731	981.13727	-213.35378	711.14203	803.97302	230.98483	1347.08411	774.02795	276.16125	1174.57385	727.87555	210.11768	1159.93689	832.91058	253.34023	1064.66187	775.08252	276.22202	979.31128	839.33203	224.78293	922.68799	829.02216	259.79712	866.67242	844.73456	213.93294	856.73273	832.45337	177.76889	806.72693	833.25562	184.45616	744.47894	835.96161	276.83273	790.65619	819.80035	256.69138	735.29077	793.20789	239.01044	694.31805	716.29138	-33.23934	1093.87805	811.54858	-220.87053	1038.47888	817.54004	155.87903	1035.89905	885.14331	-167.56090	633.00494	965.64258	-79.73660	567.51904	913.87494	-136.16673	505.61423	906.35614	-24.61295	510.00604	914.26263	-90.81222	324.73309	800.26666	-117.24566	74.80843	836.58417	-20.27121	96.83018	742.93604	-56.58255	48.90696	985.46735	-82.70877	51.29870	913.90112	-40.95802	73.07019	940.89471	161.05701	666.17383	978.10889	149.46036	524.03906	986.90985	28.87362	517.63873	892.15765	98.48950	344.54169	682.74463	119.92563	186.50813	734.64752	27.87085	198.76230	634.60291	56.29845	203.32542	811.83044	75.94186	68.84930	782.66656	46.02615	112.29750																																																																																																																															
